<?xml version="1.0" encoding="UTF-8"?>
<svg id="Camada_1" xmlns="http://www.w3.org/2000/svg" xmlns:xlink="http://www.w3.org/1999/xlink" version="1.1" viewBox="0 0 31.9 32">
  <!-- Generator: Adobe Illustrator 29.3.1, SVG Export Plug-In . SVG Version: 2.1.0 Build 151)  -->
  <defs>
    <style>
      .st0 {
        fill: url(#linear-gradient2);
      }

      .st1 {
        fill: url(#linear-gradient1);
      }

      .st2 {
        fill: url(#linear-gradient9);
      }

      .st3 {
        fill: url(#linear-gradient3);
      }

      .st4 {
        fill: url(#linear-gradient6);
      }

      .st5 {
        fill: url(#linear-gradient8);
      }

      .st6 {
        fill: url(#linear-gradient7);
      }

      .st7 {
        fill: url(#linear-gradient5);
      }

      .st8 {
        fill: url(#linear-gradient4);
      }

      .st9 {
        fill: url(#linear-gradient28);
      }

      .st10 {
        fill: url(#linear-gradient18);
      }

      .st11 {
        fill: url(#linear-gradient13);
      }

      .st12 {
        fill: url(#linear-gradient12);
      }

      .st13 {
        fill: url(#linear-gradient15);
      }

      .st14 {
        fill: url(#linear-gradient16);
      }

      .st15 {
        fill: url(#linear-gradient11);
      }

      .st16 {
        fill: url(#linear-gradient10);
      }

      .st17 {
        fill: url(#linear-gradient17);
      }

      .st18 {
        fill: url(#linear-gradient14);
      }

      .st19 {
        fill: url(#linear-gradient19);
      }

      .st20 {
        fill: url(#linear-gradient23);
      }

      .st21 {
        fill: url(#linear-gradient22);
      }

      .st22 {
        fill: url(#linear-gradient24);
      }

      .st23 {
        fill: url(#linear-gradient25);
      }

      .st24 {
        fill: url(#linear-gradient21);
      }

      .st25 {
        fill: url(#linear-gradient20);
      }

      .st26 {
        fill: url(#linear-gradient27);
      }

      .st27 {
        fill: url(#linear-gradient26);
      }

      .st28 {
        fill: url(#linear-gradient);
      }
    </style>
    <linearGradient id="linear-gradient" x1="3.7" y1="13.9" x2="8.7" y2="13.9" gradientUnits="userSpaceOnUse">
      <stop offset="0" stop-color="#e5c36f"/>
      <stop offset="1" stop-color="#b28245"/>
    </linearGradient>
    <linearGradient id="linear-gradient1" x1="8.4" y1="15.7" x2="17" y2="15.7" xlink:href="#linear-gradient"/>
    <linearGradient id="linear-gradient2" x1="18.1" y1="14" x2="19.3" y2="14" xlink:href="#linear-gradient"/>
    <linearGradient id="linear-gradient3" x1="21" y1="14.1" x2="22.4" y2="14.1" xlink:href="#linear-gradient"/>
    <linearGradient id="linear-gradient4" x1="23.4" y1="15.7" x2="30.6" y2="15.7" xlink:href="#linear-gradient"/>
    <linearGradient id="linear-gradient5" x1=".9" y1="19.3" x2="2.3" y2="19.3" xlink:href="#linear-gradient"/>
    <linearGradient id="linear-gradient6" x1=".9" y1="17.8" x2="2.3" y2="17.8" xlink:href="#linear-gradient"/>
    <linearGradient id="linear-gradient7" x1=".9" y1="16.2" x2="2.3" y2="16.2" xlink:href="#linear-gradient"/>
    <linearGradient id="linear-gradient8" x1=".9" y1="14.7" x2="2.3" y2="14.7" xlink:href="#linear-gradient"/>
    <linearGradient id="linear-gradient9" x1=".9" y1="12.9" x2="2.6" y2="12.9" xlink:href="#linear-gradient"/>
    <linearGradient id="linear-gradient10" x1=".9" y1="11.1" x2="2.3" y2="11.1" xlink:href="#linear-gradient"/>
    <linearGradient id="linear-gradient11" x1="15.8" y1="21.8" x2="16.3" y2="21.8" xlink:href="#linear-gradient"/>
    <linearGradient id="linear-gradient12" x1="16.7" y1="21.8" x2="17.3" y2="21.8" xlink:href="#linear-gradient"/>
    <linearGradient id="linear-gradient13" x1="17.7" y1="21.8" x2="18.2" y2="21.8" xlink:href="#linear-gradient"/>
    <linearGradient id="linear-gradient14" x1="18.6" y1="21.8" x2="19.1" y2="21.8" xlink:href="#linear-gradient"/>
    <linearGradient id="linear-gradient15" x1="19.5" y1="21.8" x2="20.1" y2="21.8" xlink:href="#linear-gradient"/>
    <linearGradient id="linear-gradient16" x1="20.3" y1="21.8" x2="20.9" y2="21.8" xlink:href="#linear-gradient"/>
    <linearGradient id="linear-gradient17" x1="21.2" y1="21.8" x2="21.8" y2="21.8" xlink:href="#linear-gradient"/>
    <linearGradient id="linear-gradient18" x1="22.2" y1="21.8" x2="22.6" y2="21.8" xlink:href="#linear-gradient"/>
    <linearGradient id="linear-gradient19" x1="23.4" y1="21.8" x2="23.9" y2="21.8" xlink:href="#linear-gradient"/>
    <linearGradient id="linear-gradient20" x1="24.2" y1="21.8" x2="24.7" y2="21.8" xlink:href="#linear-gradient"/>
    <linearGradient id="linear-gradient21" x1="25.1" y1="21.8" x2="25.5" y2="21.8" xlink:href="#linear-gradient"/>
    <linearGradient id="linear-gradient22" x1="25.9" y1="21.8" x2="26.3" y2="21.8" xlink:href="#linear-gradient"/>
    <linearGradient id="linear-gradient23" x1="26.7" y1="22" x2="26.7" y2="22" xlink:href="#linear-gradient"/>
    <linearGradient id="linear-gradient24" x1="27.2" y1="21.8" x2="27.6" y2="21.8" xlink:href="#linear-gradient"/>
    <linearGradient id="linear-gradient25" x1="28" y1="21.8" x2="28.6" y2="21.8" xlink:href="#linear-gradient"/>
    <linearGradient id="linear-gradient26" x1="29" y1="21.8" x2="29.5" y2="21.8" xlink:href="#linear-gradient"/>
    <linearGradient id="linear-gradient27" x1="29.9" y1="21.8" x2="30.5" y2="21.8" xlink:href="#linear-gradient"/>
    <linearGradient id="linear-gradient28" x1=".9" y1="21.8" x2="15.1" y2="21.8" xlink:href="#linear-gradient"/>
  </defs>
  <g>
    <path class="st28" d="M8.7,11.6v1h-2.6v7.1h-1.2v-7.1h-1.1v-1.1h1.1v-.7c0-.9.2-1.6.6-2,.4-.5,1-.7,1.8-.7s.5,0,.7,0c.2,0,.4,0,.6.2v1.1c-.2,0-.4-.1-.6-.2-.2,0-.4,0-.6,0-1,0-1.4.6-1.4,1.7v.7h2.6Z"/>
    <path class="st1" d="M16.6,17.3c-.2.5-.5,1-.9,1.4-.4.4-.8.7-1.4.9-.5.2-1.1.3-1.7.3s-1.2-.1-1.7-.3c-.5-.2-1-.5-1.4-.9-.4-.4-.7-.8-.9-1.4-.2-.5-.3-1.1-.3-1.7s.1-1.1.3-1.7c.2-.5.5-1,.9-1.4.4-.4.8-.7,1.4-.9.5-.2,1.1-.3,1.7-.3s1.2.1,1.7.3c.5.2,1,.5,1.4.9.4.4.7.8.9,1.4.2.5.3,1.1.3,1.7s-.1,1.1-.3,1.7ZM15.5,14.4c-.2-.4-.4-.7-.6-1-.3-.3-.6-.5-1-.7-.4-.2-.8-.3-1.2-.3s-.9,0-1.2.2c-.4.2-.7.4-.9.7-.3.3-.5.6-.6,1-.1.4-.2.8-.2,1.2s0,.9.2,1.3c.2.4.4.7.6,1,.3.3.6.5,1,.7.4.2.8.3,1.2.3s.9,0,1.2-.2c.4-.2.7-.4,1-.7.3-.3.5-.6.6-1,.1-.4.2-.8.2-1.2s0-.9-.2-1.3Z"/>
    <path class="st0" d="M18.1,19.8v-11.6h1.2v11.6h-1.2Z"/>
    <path class="st3" d="M21,9.8v-1.3h1.4v1.3h-1.4ZM21.1,19.8v-8.2h1.2v8.2h-1.2Z"/>
    <path class="st8" d="M25.6,12.7c-.4.1-.8.3-1.2.4l-.4-1c.5-.2.9-.4,1.4-.5.5-.1,1-.2,1.6-.2,1.1,0,2,.3,2.6.8s.9,1.4.9,2.5v5h-1.2v-1.2c-.3.4-.7.7-1.2,1-.5.3-1.1.4-1.8.4s-.8,0-1.1-.2c-.4-.1-.7-.3-1-.5-.3-.2-.5-.5-.7-.8-.2-.3-.3-.7-.3-1.1s0-.8.3-1.2c.2-.3.4-.6.7-.8.3-.2.7-.4,1.1-.5.4-.1.9-.2,1.4-.2s1,0,1.4,0c.4,0,.8.1,1.1.3v-.3c0-.7-.2-1.3-.6-1.7-.4-.4-1-.6-1.8-.6s-.9,0-1.3.2ZM25.2,16.1c-.4.3-.6.7-.6,1.3s0,.5.2.7c.1.2.3.4.5.5.2.1.4.3.7.3.2,0,.5.1.8.1s.7,0,1.1-.2.6-.3.9-.5c.2-.2.4-.4.6-.7.1-.3.2-.6.2-.9v-.8c-.3,0-.7-.2-1.1-.2-.4,0-.8-.1-1.4-.1-.8,0-1.4.2-1.8.5Z"/>
  </g>
  <g>
    <path class="st7" d="M2.3,19.8H.9v-1h0v.9h.6v-.8h0v.8h.6v-.9h0v1Z"/>
    <path class="st4" d="M2.1,17.3s0,0,.1,0c0,0,0,0,0,.1,0,0,0,.1,0,.2,0,.1,0,.2,0,.3,0,0,0,.2-.2.3h0c0-.1,0-.1,0-.2,0,0,0,0,0-.1,0,0,0,0,0-.1s0,0,0-.1,0-.1,0-.1,0,0,0-.1c0,0,0,0,0,0,0,0,0,0-.1,0h0s0,0-.1,0c0,0,0,0,0,0,0,0,0,0,0,.1,0,0,0,.1,0,.2,0,0,0,.2,0,.2,0,0,0,.1,0,.1s0,0-.1,0c0,0,0,0-.1,0h0c0,0-.1,0-.1,0,0,0,0,0-.1,0,0,0,0,0,0-.1,0,0,0-.1,0-.2,0-.1,0-.2,0-.3,0,0,0-.1.1-.2h0c0,.1,0,.2-.1.3,0,0,0,.1,0,.2s0,.1,0,.1c0,0,0,0,0,.1,0,0,0,0,0,0,0,0,0,0,.1,0h0s0,0,.1,0c0,0,0,0,0,0,0,0,0,0,0-.1,0,0,0-.1,0-.2,0-.2,0-.3.1-.4,0,0,.1-.1.2-.1h0c0,0,.1,0,.2,0Z"/>
    <path class="st6" d="M1.5,15.7c0,0,.1,0,.1.1,0,0,0,.1,0,.2,0,0,0,.1,0,.2v.4h.5c0,.1-1.4.1-1.4.1v-.5c0,0,0-.1,0-.2,0,0,0-.1,0-.2,0,0,0,0,.1-.1,0,0,.1,0,.2,0h0c0,0,.1,0,.2,0ZM1.3,15.8c0,0-.1,0-.2,0s0,0-.1,0c0,0,0,0,0,.1s0,.1,0,.2v.4h.7v-.4c0,0,0-.1,0-.2,0,0,0-.1,0-.1,0,0,0,0-.1,0,0,0,0,0-.1,0h0Z"/>
    <path class="st5" d="M2.3,14.1l-.4.2v.8l.4.2h0c0,.1-1.4-.6-1.4-.6h0c0-.1,1.4-.8,1.4-.8h0ZM1,14.7l.8.4v-.7l-.8.4Z"/>
    <path class="st2" d="M2.3,13.2c0,0,0,.1-.2.2s-.1.1-.2.1c0,0-.2,0-.3,0s-.2,0-.3,0c0,0-.2,0-.2-.1,0,0-.1-.1-.2-.2,0,0,0-.2,0-.3s0-.1,0-.2c0,0,0,0,0-.1,0,0,0,0,0-.1,0,0,0,0,0-.1h0c0,.1,0,.1,0,.2,0,0,0,0,0,.1,0,0,0,0,0,.1,0,0,0,0,0,.1,0,0,0,.2,0,.2,0,0,0,.1.1.2s.1,0,.2.1c0,0,.2,0,.3,0s.2,0,.3,0c0,0,.1,0,.2-.1,0,0,.1-.1.1-.2,0,0,0-.2,0-.2s0-.2,0-.3c0,0,0-.1-.2-.2h0s0,0,0,0c0,0,0,0,0,.1,0,0,0,0,0,.1,0,0,0,.1,0,.2h.3c0,.1,0,.2,0,.2l-.2-.2c0,0,0,.2,0,.3Z"/>
    <path class="st16" d="M1.9,10.5c0,0,.2,0,.2.1,0,0,.1.1.2.2,0,0,0,.2,0,.3s0,.2,0,.3c0,0,0,.2-.2.2,0,0-.1.1-.2.1s-.2,0-.3,0h0c0,0-.2,0-.3,0,0,0-.2,0-.2-.1,0,0-.1-.1-.2-.2,0,0,0-.2,0-.3s0-.2,0-.3c0,0,0-.2.2-.2,0,0,.1-.1.2-.1,0,0,.2,0,.3,0,0,0,0,0,0,0,0,0,.2,0,.3,0ZM1.6,10.5c0,0-.2,0-.2,0,0,0-.1,0-.2.1,0,0-.1.1-.1.2,0,0,0,.2,0,.2s0,.2,0,.2c0,0,0,.1.1.2,0,0,.1,0,.2.1,0,0,.2,0,.2,0h0c0,0,.2,0,.2,0,0,0,.1,0,.2-.1,0,0,.1-.1.1-.2,0,0,0-.2,0-.2s0-.2,0-.2,0-.1-.1-.2c0,0-.1,0-.2-.1s-.2,0-.2,0h0Z"/>
  </g>
  <g>
    <path class="st15" d="M16.3,22s0,0,0,0,0,0,0,0c0,0,0,0,0,0,0,0,0,0-.1,0,0,0,0,0,0,0,0,0,0,0,0,0,0,0,0,0,0-.1h0s0,0,0-.1c0,0,0,0,0-.1,0,0,0,0,0,0,0,0,0,0,.1,0s0,0,0,0c0,0,0,0,0,0,0,0,0,0,0,0,0,0,0,0,0,0h0s0,0,0,0,0,0,0,0c0,0,0,0,0,0,0,0,0,0,0,0,0,0,0,0-.1,0,0,0,0,0,0,0,0,0,0,0,0,0s0,0,0,.1h0s0,0,0,.1,0,0,0,0c0,0,0,0,0,0,0,0,0,0,.1,0s0,0,.1,0,0,0,0,0h0s0,0,0,0Z"/>
    <path class="st12" d="M17.2,22.1v-.2h-.4v.2h-.1l.3-.6h0l.3.6h0ZM17,21.5l-.2.4h.3l-.2-.4Z"/>
    <path class="st11" d="M18.1,22.1l-.2-.3h-.2v.3h0v-.6h.3s0,0,0,0c0,0,0,0,0,0,0,0,0,0,0,0s0,0,0,0h0s0,0,0,0c0,0,0,0,0,0,0,0,0,0,0,0,0,0,0,0,0,0l.2.3h0ZM18.1,21.6s0,0,0,0,0,0-.1,0h-.2v.3h.2s0,0,0,0,0,0,0,0c0,0,0,0,0,0,0,0,0,0,0,0h0Z"/>
    <path class="st18" d="M19,22.1l-.4-.5v.5h0v-.6h0l.4.5v-.5h0v.6h0Z"/>
    <path class="st13" d="M20,22.1v-.2h-.4v.2h-.1l.3-.6h0l.3.6h0ZM19.8,21.5l-.2.4h.3l-.2-.4Z"/>
    <path class="st14" d="M20.6,22.1h0l-.3-.6h0l.2.6.2-.6h0l-.3.6Z"/>
    <path class="st17" d="M21.7,22.1v-.2h-.4v.2h-.1l.3-.6h0l.3.6h0ZM21.5,21.5l-.2.4h.3l-.2-.4Z"/>
    <path class="st10" d="M22.2,22.1v-.6h0v.6h.4s-.4,0-.4,0Z"/>
    <path class="st19" d="M23.6,21.5s0,0,0,0h0s0,0,0,0c0,0,0,0,0,0,0,0,0,0,0,0,0,0,0,0,0,0s0,0,0,0c0,0,0,0,0,0,0,0,0,0,0,0s0,0,0,0,0,0,0,0c0,0,0,0,0,0s0,0,0,0c0,0,0,0,0,0l-.2.2h.3s-.4,0-.4,0h0s.2-.2.2-.2c0,0,0,0,0,0s0,0,0,0c0,0,0,0,0,0,0,0,0,0,0,0s0,0,0,0c0,0,0,0,0,0,0,0,0,0,0,0s0,0,0,0c0,0,0,0,0,0Z"/>
    <path class="st25" d="M24.7,21.9s0,0,0,.1c0,0,0,0,0,0,0,0,0,0-.1,0s0,0-.1,0,0,0,0,0c0,0,0,0,0-.1s0,0,0-.1,0,0,0-.1c0,0,0,0,0-.1,0,0,0,0,0,0,0,0,0,0,.1,0s0,0,.1,0,0,0,0,0,0,0,0,.1,0,0,0,.1,0,0,0,.1ZM24.7,21.7s0,0,0,0c0,0,0,0,0,0s0,0,0,0,0,0,0,0c0,0,0,0,0,0,0,0,0,0,0,0,0,0,0,0,0,.1s0,0,0,.1c0,0,0,0,0,0s0,0,0,0,0,0,0,0,0,0,0,0c0,0,0,0,0,0,0,0,0,0,0,0,0,0,0,0,0-.1s0,0,0-.1Z"/>
    <path class="st24" d="M25.2,21.5s0,0,0,0h0s0,0,0,0c0,0,0,0,0,0,0,0,0,0,0,0,0,0,0,0,0,0s0,0,0,0c0,0,0,0,0,0,0,0,0,0,0,0s0,0,0,0,0,0,0,0c0,0,0,0,0,0s0,0,0,0c0,0,0,0,0,0l-.2.2h.3s-.4,0-.4,0h0s.2-.2.2-.2c0,0,0,0,0,0s0,0,0,0c0,0,0,0,0,0,0,0,0,0,0,0s0,0,0,0c0,0,0,0,0,0,0,0,0,0,0,0s0,0,0,0c0,0,0,0,0,0Z"/>
    <path class="st21" d="M25.9,21.5h.3s-.3,0-.3,0v.2s0,0,0,0c0,0,0,0,0,0s0,0,0,0c0,0,0,0,0,0s0,0,0,0c0,0,0,0,0,0s0,0,0,0c0,0,0,0,0,0s0,0,0,0c0,0,0,0,0,0s0,0-.1,0c0,0,0,0,0,0h0s0,0,0,0c0,0,0,0,0,0s0,0,0,0c0,0,0,0,0,0,0,0,0,0,0,0,0,0,0,0,0,0s0,0,0,0c0,0,0,0,0,0,0,0,0,0,0,0,0,0,0,0,0,0s0,0,0,0c0,0,0,0,0,0h0s0-.3,0-.3Z"/>
    <path class="st20" d="M26.7,22.1h0c0,0,0,0,0,0h0c0,0,0,0,0,0Z"/>
    <path class="st22" d="M27.6,21.7s0,0,0,0,0,0,0,0,0,0,0,0h-.2v.2h0v-.6h.2s0,0,0,0c0,0,0,0,0,0,0,0,0,0,0,0,0,0,0,0,0,0h0s0,0,0,0ZM27.6,21.7s0,0,0,0c0,0,0,0,0,0,0,0,0,0,0,0,0,0,0,0,0,0h-.2v.3h.2s0,0,0,0c0,0,0,0,0,0,0,0,0,0,0,0,0,0,0,0,0,0h0Z"/>
    <path class="st23" d="M28.5,22.1v-.5l-.2.4h0l-.2-.4v.5h0v-.6h0l.2.4.2-.4h0v.6h0Z"/>
    <path class="st27" d="M29.5,22s0,0,0,0,0,0,0,0c0,0,0,0,0,0h-.3v-.6h.3s0,0,0,0,0,0,0,0c0,0,0,0,0,0,0,0,0,0,0,0h0s0,0,0,0c0,0,0,0,0,0s0,0,0,0c0,0,0,0,0,0,0,0,0,0,0,0s0,0,0,0c0,0,0,0,0,0,0,0,0,0,0,0h0s0,0,0,0ZM29.4,21.6s0,0,0,0,0,0-.1,0h-.2v.2h.2s0,0,0,0c0,0,0,0,0,0,0,0,0,0,0,0,0,0,0,0,0,0h0ZM29.5,21.9s0,0,0,0,0,0-.1,0h-.2v.2h.2c0,0,0,0,.1,0,0,0,0,0,0,0h0Z"/>
    <path class="st26" d="M30.4,22.1v-.2h-.4v.2h-.1l.3-.6h0l.3.6h0ZM30.2,21.5l-.2.4h.3l-.2-.4Z"/>
  </g>
  <rect class="st9" x=".9" y="21.3" width="14.2" height="1"/>
</svg>