<?xml version="1.0" encoding="UTF-8"?>
<svg id="Layer_1" xmlns="http://www.w3.org/2000/svg" xmlns:xlink="http://www.w3.org/1999/xlink" version="1.1" viewBox="0 0 800 800">
  <!-- Generator: Adobe Illustrator 29.3.1, SVG Export Plug-In . SVG Version: 2.1.0 Build 151)  -->
  <defs>
    <style>
      .st0 {
        fill: url(#linear-gradient2);
      }

      .st1 {
        fill: url(#linear-gradient1);
      }

      .st2 {
        fill: url(#linear-gradient9);
      }

      .st3 {
        fill: url(#linear-gradient3);
      }

      .st4 {
        fill: url(#linear-gradient6);
      }

      .st5 {
        fill: url(#linear-gradient8);
      }

      .st6 {
        fill: url(#linear-gradient7);
      }

      .st7 {
        fill: url(#linear-gradient5);
      }

      .st8 {
        fill: url(#linear-gradient4);
      }

      .st9 {
        fill: url(#linear-gradient28);
      }

      .st10 {
        fill: url(#linear-gradient18);
      }

      .st11 {
        fill: url(#linear-gradient13);
      }

      .st12 {
        fill: url(#linear-gradient12);
      }

      .st13 {
        fill: url(#linear-gradient15);
      }

      .st14 {
        fill: url(#linear-gradient16);
      }

      .st15 {
        fill: url(#linear-gradient11);
      }

      .st16 {
        fill: url(#linear-gradient10);
      }

      .st17 {
        fill: url(#linear-gradient17);
      }

      .st18 {
        fill: url(#linear-gradient14);
      }

      .st19 {
        fill: url(#linear-gradient19);
      }

      .st20 {
        fill: url(#linear-gradient23);
      }

      .st21 {
        fill: url(#linear-gradient22);
      }

      .st22 {
        fill: url(#linear-gradient24);
      }

      .st23 {
        fill: url(#linear-gradient25);
      }

      .st24 {
        fill: url(#linear-gradient21);
      }

      .st25 {
        fill: url(#linear-gradient20);
      }

      .st26 {
        fill: url(#linear-gradient27);
      }

      .st27 {
        fill: url(#linear-gradient26);
      }

      .st28 {
        fill: url(#linear-gradient);
      }
    </style>
    <linearGradient id="linear-gradient" x1="150.3" y1="355.3" x2="253.4" y2="355.3" gradientUnits="userSpaceOnUse">
      <stop offset="0" stop-color="#e6c56f"/>
      <stop offset="1" stop-color="#b48345"/>
    </linearGradient>
    <linearGradient id="linear-gradient1" x1="246.8" y1="391.3" x2="424.9" y2="391.3" xlink:href="#linear-gradient"/>
    <linearGradient id="linear-gradient2" x1="448.4" y1="355.9" x2="473.8" y2="355.9" xlink:href="#linear-gradient"/>
    <linearGradient id="linear-gradient3" x1="508.9" y1="358.4" x2="538" y2="358.4" xlink:href="#linear-gradient"/>
    <linearGradient id="linear-gradient4" x1="557.4" y1="391.8" x2="707.5" y2="391.8" xlink:href="#linear-gradient"/>
    <linearGradient id="linear-gradient5" x1="91.5" y1="465.9" x2="121" y2="465.9" xlink:href="#linear-gradient"/>
    <linearGradient id="linear-gradient6" x1="91.1" y1="435.1" x2="121.5" y2="435.1" xlink:href="#linear-gradient"/>
    <linearGradient id="linear-gradient7" x1="91.5" y1="402" x2="121" y2="402" xlink:href="#linear-gradient"/>
    <linearGradient id="linear-gradient8" x1="91.3" y1="371.1" x2="121" y2="371.1" xlink:href="#linear-gradient"/>
    <linearGradient id="linear-gradient9" x1="91" y1="333.9" x2="127.3" y2="333.9" xlink:href="#linear-gradient"/>
    <linearGradient id="linear-gradient10" x1="91" y1="296.9" x2="121.5" y2="296.9" xlink:href="#linear-gradient"/>
    <linearGradient id="linear-gradient11" x1="400.2" y1="518.1" x2="411.6" y2="518.1" xlink:href="#linear-gradient"/>
    <linearGradient id="linear-gradient12" x1="418.5" y1="518" x2="431.2" y2="518" xlink:href="#linear-gradient"/>
    <linearGradient id="linear-gradient13" x1="439.4" y1="518.1" x2="449.7" y2="518.1" xlink:href="#linear-gradient"/>
    <linearGradient id="linear-gradient14" x1="457.9" y1="518.1" x2="468.4" y2="518.1" xlink:href="#linear-gradient"/>
    <linearGradient id="linear-gradient15" x1="476.5" y1="518" x2="489.3" y2="518" xlink:href="#linear-gradient"/>
    <linearGradient id="linear-gradient16" x1="494.5" y1="518.1" x2="506.5" y2="518.1" xlink:href="#linear-gradient"/>
    <linearGradient id="linear-gradient17" x1="511.7" y1="518" x2="524.4" y2="518" xlink:href="#linear-gradient"/>
    <linearGradient id="linear-gradient18" x1="532.5" y1="518.1" x2="540.9" y2="518.1" xlink:href="#linear-gradient"/>
    <linearGradient id="linear-gradient19" x1="559" y1="518" x2="567.7" y2="518" xlink:href="#linear-gradient"/>
    <linearGradient id="linear-gradient20" x1="575.5" y1="518.1" x2="586" y2="518.1" xlink:href="#linear-gradient"/>
    <linearGradient id="linear-gradient21" x1="593.3" y1="518" x2="601.9" y2="518" xlink:href="#linear-gradient"/>
    <linearGradient id="linear-gradient22" x1="609.6" y1="518.2" x2="618.4" y2="518.2" xlink:href="#linear-gradient"/>
    <linearGradient id="linear-gradient23" x1="626.4" y1="523.6" x2="627.6" y2="523.6" xlink:href="#linear-gradient"/>
    <linearGradient id="linear-gradient24" x1="636.4" y1="518.1" x2="645.7" y2="518.1" xlink:href="#linear-gradient"/>
    <linearGradient id="linear-gradient25" x1="653.9" y1="518.1" x2="665.9" y2="518.1" xlink:href="#linear-gradient"/>
    <linearGradient id="linear-gradient26" x1="675.1" y1="518.1" x2="685.1" y2="518.1" xlink:href="#linear-gradient"/>
    <linearGradient id="linear-gradient27" x1="692.5" y1="518" x2="705.3" y2="518" xlink:href="#linear-gradient"/>
    <linearGradient id="linear-gradient28" x1="91" y1="518.2" x2="385.5" y2="518.2" xlink:href="#linear-gradient"/>
  </defs>
  <g>
    <path class="st28" d="M253.1,306.3v21.8h-53.9v148.4h-25.4v-148.4h-23.5v-22.1h23.5v-14.9c0-18.7,4.5-32.9,13.4-42.6,8.9-9.7,21.6-14.5,38.2-14.5s11.1.3,15.4,1c4.3.7,8.5,1.8,12.7,3.3v22.1c-4.6-1.3-8.8-2.4-12.6-3.1-3.7-.8-7.8-1.2-12.2-1.2-19.8,0-29.7,12.1-29.7,36.4v13.9h54.2Z"/>
    <path class="st1" d="M418.2,425.5c-4.5,10.9-10.7,20.4-18.7,28.6-7.9,8.2-17.4,14.6-28.4,19.3-11,4.7-22.9,7.1-35.7,7.1s-24.6-2.4-35.4-7.1c-10.8-4.7-20.2-11.1-28.1-19.2-7.9-8-14.1-17.5-18.5-28.3-4.4-10.8-6.6-22.3-6.6-34.4s2.2-23.6,6.6-34.5c4.4-10.9,10.6-20.4,18.5-28.6,7.9-8.1,17.3-14.6,28.3-19.3,10.9-4.7,22.9-7.1,35.9-7.1s24.6,2.4,35.5,7.1c10.9,4.7,20.3,11.1,28.3,19.2,7.9,8,14.1,17.5,18.5,28.3,4.4,10.8,6.6,22.3,6.6,34.4s-2.3,23.6-6.8,34.5ZM394,365.4c-3.2-8.1-7.7-15.2-13.4-21.3-5.7-6-12.4-10.8-20.2-14.3-7.7-3.5-16.1-5.3-25.1-5.3s-17.7,1.7-25.4,5.1c-7.7,3.4-14.3,8.1-19.7,14.2-5.4,6-9.6,13.1-12.7,21.1-3.1,8-4.6,16.6-4.6,25.9s1.6,17.9,4.8,26c3.2,8.1,7.6,15.2,13.2,21.1,5.6,5.9,12.3,10.7,20,14.2,7.7,3.5,16.1,5.3,25.1,5.3s17.7-1.7,25.4-5.1c7.7-3.4,14.3-8.1,19.8-14,5.5-5.9,9.8-12.9,12.9-20.9,3.1-8,4.6-16.6,4.6-25.9s-1.6-17.9-4.8-26Z"/>
    <path class="st0" d="M448.4,476.5v-241.3h25.4v241.3h-25.4Z"/>
    <path class="st3" d="M508.9,268.3v-28.1h29.1v28.1h-29.1ZM510.5,476.5v-170.9h25.4v170.9h-25.4Z"/>
    <path class="st8" d="M604.5,329.3c-8.3,2.3-16.4,5.3-24.3,9.1l-7.6-20.8c9.5-4.4,19.1-7.9,28.8-10.4,9.7-2.5,20.8-3.8,33.4-3.8,23.4,0,41.3,5.8,53.9,17.4,12.6,11.6,18.8,28.7,18.8,51.4v104.4h-24.5v-25.8c-5.9,7.7-13.9,14.5-24,20.5-10,5.9-22.6,8.9-37.8,8.9s-15.7-1.1-23.3-3.3c-7.6-2.2-14.4-5.6-20.5-10.1-6.1-4.5-10.9-10.1-14.5-16.7-3.6-6.6-5.5-14.4-5.5-23.5s1.8-17,5.3-24c3.5-6.9,8.5-12.7,15-17.4,6.5-4.6,14.2-8.1,23.1-10.6,8.9-2.4,18.8-3.6,29.6-3.6s20.6.7,28.8,2c8.1,1.3,16.1,3.1,23.8,5.3v-5.9c0-15.4-4.5-27-13.4-34.9-8.9-7.8-21.4-11.7-37.5-11.7s-19.3,1.2-27.6,3.5ZM596.4,399.5c-8.6,6.4-12.8,15.1-12.8,26.1s1.2,10.4,3.5,14.5c2.3,4.2,5.4,7.8,9.4,10.7,4,3,8.5,5.2,13.7,6.8,5.2,1.5,10.6,2.3,16.3,2.3s15.3-1.2,22.2-3.5,13-5.5,18.1-9.6c5.2-4.1,9.2-8.9,12.2-14.5,3-5.6,4.4-11.8,4.4-18.7v-16.5c-6.4-1.8-13.7-3.4-21.9-5-8.2-1.5-17.6-2.3-28.2-2.3-16,0-28.3,3.2-36.9,9.6Z"/>
  </g>
  <g>
    <path class="st7" d="M121,476.5h-29.5v-21h2v18.8h11.7v-16.9h2v16.9h11.9v-19h2v21.2Z"/>
    <path class="st4" d="M116.7,425c1,.5,1.9,1.2,2.6,2,.7.9,1.3,1.9,1.6,3.1.4,1.2.6,2.5.6,3.9,0,2.4-.4,4.5-1.2,6.4-.8,1.9-2,3.7-3.5,5.5l-1.6-1.4c.8-.8,1.4-1.6,2-2.4.6-.8,1-1.6,1.4-2.5.4-.8.6-1.7.8-2.7s.3-1.9.3-3-.1-2.1-.4-3-.7-1.7-1.2-2.4c-.5-.6-1.1-1.2-1.9-1.5-.7-.4-1.5-.5-2.3-.5h0c-.8,0-1.5.1-2.1.4-.6.2-1.2.7-1.7,1.3-.5.6-1,1.5-1.4,2.6-.4,1.1-.8,2.4-1.1,4.1-.4,1.8-.8,3.3-1.3,4.6-.5,1.3-1.1,2.3-1.7,3.1s-1.4,1.4-2.3,1.8c-.9.4-1.9.5-3,.5h0c-1.1,0-2.1-.2-3.1-.7-.9-.5-1.8-1.1-2.5-2-.7-.8-1.3-1.8-1.6-3-.4-1.2-.6-2.4-.6-3.8,0-2.1.3-4,.9-5.5.6-1.6,1.5-3.1,2.7-4.6l1.7,1.4c-1.2,1.4-2.1,2.8-2.6,4.2-.5,1.4-.8,2.9-.8,4.6s.1,2.1.4,3c.3.9.7,1.6,1.2,2.3.5.6,1.1,1.1,1.8,1.5.7.3,1.4.5,2.2.5h0c.8,0,1.5-.1,2.1-.4.6-.2,1.2-.7,1.7-1.3.5-.6,1-1.5,1.4-2.6.4-1.1.8-2.6,1.2-4.3.7-3.4,1.7-5.9,3-7.4,1.3-1.5,3-2.3,5.2-2.3h0c1.2,0,2.3.2,3.3.7Z"/>
    <path class="st6" d="M104.7,392c1.2.6,2.2,1.5,3,2.5.8,1.1,1.4,2.3,1.8,3.7.4,1.4.6,2.9.6,4.4v8h11v2.2h-29.5v-10.7c0-1.6.2-3.1.6-4.5.4-1.3,1-2.5,1.8-3.5.8-1,1.7-1.7,2.8-2.3,1.1-.5,2.4-.8,3.8-.8h0c1.5,0,2.9.3,4.1.9ZM100.7,393.3c-1.2,0-2.2.2-3.1.7s-1.6,1-2.2,1.8c-.6.8-1,1.7-1.4,2.8s-.5,2.3-.5,3.6v8.4h14.6v-8.1c0-1.4-.2-2.6-.5-3.8-.3-1.1-.8-2.1-1.5-2.9-.6-.8-1.4-1.4-2.3-1.9-.9-.4-1.9-.7-3-.7h0Z"/>
    <path class="st5" d="M121,358.7l-8.3,3.8v17.4l8.3,3.8v2.3l-29.7-13.8v-2.1l29.7-13.8v2.4ZM93.7,371.1l17.1,7.8v-15.6l-17.1,7.8Z"/>
    <path class="st2" d="M120,339.2c-.9,1.6-2,3-3.3,4.2s-2.9,2.1-4.7,2.8c-1.8.7-3.7,1-5.7,1s-4.1-.4-5.9-1.1c-1.9-.7-3.5-1.8-4.9-3.1-1.4-1.3-2.5-2.9-3.3-4.7-.8-1.8-1.2-3.8-1.2-5.9s.1-2.5.3-3.6c.2-1.1.5-2.1,1-3,.4-.9.9-1.8,1.5-2.6.6-.8,1.2-1.6,1.9-2.3l1.6,1.6c-.6.6-1.2,1.3-1.7,2-.5.7-1,1.5-1.4,2.3-.4.8-.7,1.7-.9,2.6-.2.9-.3,2-.3,3.1,0,1.8.3,3.4,1,4.9.7,1.5,1.6,2.8,2.8,3.9s2.6,2,4.2,2.6c1.6.6,3.4.9,5.3.9s3.6-.3,5.3-1c1.6-.6,3-1.5,4.2-2.6,1.2-1.1,2.1-2.4,2.8-3.9.7-1.5,1-3.2,1-4.9s-.4-4-1.2-5.6c-.8-1.6-1.9-3.1-3.4-4.6l1.4-1.5c.7.8,1.4,1.5,2,2.3.6.8,1.2,1.6,1.6,2.5.4.9.8,1.9,1.1,2.9.3,1,.4,2.2.4,3.4l5.7,2.8-1.1,2.3-4.7-3.2c-.2,1.9-.7,3.7-1.5,5.3Z"/>
    <path class="st16" d="M112.1,283.1c1.8.7,3.5,1.7,4.9,3,1.4,1.3,2.5,2.9,3.4,4.7.8,1.8,1.2,3.9,1.2,6.1s-.4,4.3-1.2,6.1c-.8,1.8-1.9,3.4-3.3,4.7-1.4,1.3-3,2.3-4.8,3s-3.8,1.1-5.8,1.1h0c-2,0-4-.4-5.8-1.1-1.8-.7-3.5-1.7-4.9-3-1.4-1.3-2.5-2.9-3.4-4.7-.8-1.8-1.2-3.9-1.2-6.1s.4-4.2,1.2-6.1c.8-1.8,1.9-3.4,3.3-4.7,1.4-1.3,3-2.3,4.8-3,1.8-.7,3.8-1.1,5.8-1.1,0,0,0,0,0,0,2,0,4,.4,5.8,1.1ZM106.3,284.3c-1.8,0-3.6.3-5.2.9-1.6.6-3,1.5-4.2,2.6-1.2,1.1-2.1,2.4-2.8,4-.7,1.5-1.1,3.2-1.1,5.1s.3,3.5,1,5c.7,1.5,1.6,2.9,2.8,4,1.2,1.1,2.6,2,4.2,2.6,1.6.6,3.3.9,5.1.9h0c1.8,0,3.6-.3,5.2-.9,1.6-.6,3-1.5,4.2-2.6,1.2-1.1,2.1-2.4,2.8-4,.7-1.5,1.1-3.2,1.1-5.1s-.3-3.5-1-5-1.6-2.9-2.8-4c-1.2-1.1-2.6-2-4.2-2.6-1.6-.6-3.3-.9-5.1-.9h0Z"/>
  </g>
  <g>
    <path class="st15" d="M410.5,523.3c-.4.3-.7.5-1.1.7s-.8.3-1.3.5c-.5.1-1,.2-1.5.2-.9,0-1.7-.2-2.5-.5-.8-.3-1.4-.8-2-1.4-.6-.6-1-1.3-1.3-2.1-.3-.8-.5-1.6-.5-2.6h0c0-.9.2-1.8.5-2.6.3-.8.8-1.5,1.3-2.1.6-.6,1.2-1.1,2-1.4.8-.3,1.6-.5,2.5-.5s1.1,0,1.5.1c.5,0,.9.2,1.3.4.4.2.8.4,1.1.6.3.2.7.5,1,.8l-.7.7c-.3-.3-.6-.5-.9-.7s-.6-.4-1-.6c-.3-.2-.7-.3-1.1-.4-.4,0-.8-.1-1.3-.1-.8,0-1.5.1-2.1.4-.7.3-1.2.7-1.7,1.2-.5.5-.9,1.1-1.1,1.8s-.4,1.4-.4,2.2h0c0,.8.1,1.6.4,2.3s.7,1.3,1.1,1.8c.5.5,1,.9,1.7,1.2.7.3,1.4.4,2.1.4s1.7-.2,2.4-.5c.7-.3,1.3-.8,2-1.5l.6.6c-.3.3-.7.6-1,.9Z"/>
    <path class="st12" d="M430.2,524.4l-1.6-3.6h-7.5l-1.6,3.6h-1l5.9-12.8h.9l5.9,12.8h-1ZM424.9,512.7l-3.4,7.3h6.7l-3.3-7.3Z"/>
    <path class="st11" d="M448.5,524.4l-4-5.3h-4.1v5.3h-.9v-12.7h5.3c.7,0,1.3,0,1.9.3.6.2,1,.4,1.4.7.4.3.7.7.9,1.1s.3.9.3,1.5h0c0,.6,0,1-.3,1.5-.2.4-.4.8-.8,1.1-.3.3-.7.5-1.2.7-.5.2-.9.3-1.5.4l4.2,5.4h-1.2ZM448.3,515.4c0-.9-.3-1.5-1-2s-1.5-.7-2.7-.7h-4.3v5.7h4.3c.5,0,1,0,1.5-.2s.8-.3,1.2-.6c.3-.2.6-.6.8-.9.2-.4.3-.8.3-1.2h0Z"/>
    <path class="st18" d="M467.7,524.4l-8.9-11.3v11.3h-.9v-12.7h.9l8.8,11v-11h.9v12.7h-.7Z"/>
    <path class="st13" d="M488.2,524.4l-1.6-3.6h-7.5l-1.6,3.6h-1l5.9-12.8h.9l5.9,12.8h-1ZM482.9,512.7l-3.4,7.3h6.7l-3.3-7.3Z"/>
    <path class="st14" d="M500.9,524.5h-.8l-5.6-12.8h1.1l5,11.7,5-11.7h1l-5.6,12.8Z"/>
    <path class="st17" d="M523.4,524.4l-1.6-3.6h-7.5l-1.6,3.6h-1l5.9-12.8h.9l5.9,12.8h-1ZM518,512.7l-3.4,7.3h6.7l-3.3-7.3Z"/>
    <path class="st10" d="M532.5,524.4v-12.7h.9v11.8h7.4v.9h-8.4Z"/>
    <path class="st19" d="M561.6,513c-.6.4-1.1,1-1.6,1.7l-.7-.5c.3-.4.6-.8.9-1.1.3-.3.6-.6,1-.9.4-.2.8-.4,1.2-.6.4-.1.9-.2,1.5-.2s1,0,1.5.3c.5.2.9.4,1.2.7.3.3.6.7.8,1.1s.3.9.3,1.4,0,.8-.2,1.2c-.1.4-.3.8-.6,1.1-.3.4-.6.8-1,1.2-.4.4-.9.9-1.4,1.4l-3.9,3.5h7.2v.9h-8.7v-.7l4.7-4.3c.5-.5,1-.9,1.3-1.3s.7-.7.9-1.1c.2-.3.4-.7.5-1,0-.3.1-.6.1-1s0-.8-.2-1.1c-.2-.3-.4-.6-.6-.9-.3-.2-.6-.4-.9-.5s-.7-.2-1.1-.2c-.8,0-1.5.2-2.1.6Z"/>
    <path class="st25" d="M585.6,520.6c-.2.8-.6,1.5-1.1,2.1-.5.6-1,1.1-1.7,1.4-.6.4-1.4.5-2.2.5s-1.5-.2-2.2-.5c-.6-.4-1.2-.8-1.6-1.4-.5-.6-.8-1.3-1-2.1s-.4-1.6-.4-2.5.1-1.7.4-2.5c.2-.8.6-1.5,1.1-2.1.5-.6,1-1.1,1.7-1.4.6-.4,1.4-.5,2.2-.5s1.5.2,2.2.5,1.2.8,1.6,1.4c.5.6.8,1.3,1,2.1s.4,1.6.4,2.5-.1,1.7-.4,2.5ZM584.7,515.9c-.2-.7-.5-1.3-.9-1.8-.4-.5-.8-.9-1.4-1.3s-1.1-.5-1.8-.5-1.2.2-1.8.5c-.5.3-1,.7-1.3,1.3-.4.5-.7,1.1-.9,1.8-.2.7-.3,1.4-.3,2.1s.1,1.5.3,2.2c.2.7.5,1.3.9,1.8s.8.9,1.4,1.3,1.1.5,1.8.5,1.2-.2,1.8-.5c.5-.3,1-.7,1.3-1.3.4-.5.7-1.1.9-1.8.2-.7.3-1.4.3-2.1s-.1-1.5-.3-2.1Z"/>
    <path class="st24" d="M595.9,513c-.6.4-1.1,1-1.6,1.7l-.7-.5c.3-.4.6-.8.9-1.1.3-.3.6-.6,1-.9.4-.2.8-.4,1.2-.6.4-.1.9-.2,1.5-.2s1,0,1.5.3c.5.2.9.4,1.2.7.3.3.6.7.8,1.1s.3.9.3,1.4,0,.8-.2,1.2c-.1.4-.3.8-.6,1.1s-.6.8-1,1.2c-.4.4-.9.9-1.4,1.4l-3.9,3.5h7.2v.9h-8.7v-.7l4.7-4.3c.5-.5,1-.9,1.3-1.3s.7-.7.9-1.1c.2-.3.4-.7.5-1,0-.3.1-.6.1-1s0-.8-.2-1.1c-.2-.3-.4-.6-.6-.9-.3-.2-.6-.4-.9-.5s-.7-.2-1.1-.2c-.8,0-1.5.2-2.1.6Z"/>
    <path class="st21" d="M610.7,511.7h7.1v.9h-6.3l-.3,4.7c.4-.2.8-.4,1.3-.5.4-.1.9-.2,1.5-.2s1.2,0,1.7.3c.5.2,1,.4,1.4.8s.7.7.9,1.2c.2.5.3,1,.3,1.6s-.1,1.2-.3,1.7c-.2.5-.5.9-.9,1.3s-.9.6-1.4.8c-.5.2-1.1.3-1.8.3s-1.7-.2-2.5-.6c-.8-.4-1.4-.9-2-1.4l.7-.7c.6.6,1.2,1,1.8,1.4.6.3,1.3.5,2,.5s1,0,1.4-.2c.4-.2.8-.4,1.1-.7.3-.3.5-.6.7-1,.2-.4.3-.8.3-1.3s0-.9-.3-1.2c-.2-.4-.4-.7-.7-1-.3-.3-.7-.5-1.1-.6-.4-.2-.9-.2-1.4-.2s-1.1,0-1.6.2c-.5.2-.9.3-1.3.6l-.7-.5.4-6.1Z"/>
    <path class="st20" d="M626.4,524.4v-1.5h1.2v1.5h-1.2Z"/>
    <path class="st22" d="M645.3,517.4c-.3.5-.6.9-1.1,1.3s-1,.6-1.6.8-1.2.3-1.9.3h-3.4v4.7h-.9v-12.7h4.6c.7,0,1.3,0,1.9.3.6.2,1.1.4,1.5.8.4.3.7.7,1,1.2.2.5.3,1,.3,1.6h0c0,.7-.1,1.3-.4,1.8ZM644.8,515.7c0-.5,0-1-.3-1.3-.2-.4-.4-.7-.8-1-.3-.3-.7-.4-1.2-.6-.5-.1-1-.2-1.6-.2h-3.6v6.3h3.5c.6,0,1.1,0,1.6-.2.5-.1.9-.4,1.2-.6.3-.3.6-.6.8-1,.2-.4.3-.8.3-1.3h0Z"/>
    <path class="st23" d="M665,524.4v-11l-5,7.3h0l-5-7.3v11h-.9v-12.7h.9l5.1,7.5,5.1-7.5h.9v12.7h-.9Z"/>
    <path class="st27" d="M684.8,522.4c-.2.4-.5.8-.9,1.1s-.9.5-1.4.7c-.6.2-1.2.2-1.9.2h-5.5v-12.7h5.2c.6,0,1.2,0,1.7.2s.9.4,1.3.6c.4.3.6.6.8,1,.2.4.3.8.3,1.3h0c0,.5,0,.9-.2,1.2-.1.3-.3.6-.5.9s-.4.4-.7.6c-.3.2-.5.3-.8.4.4,0,.7.2,1.1.4s.7.4.9.6c.3.2.5.5.6.9.2.3.2.7.2,1.1h0c0,.6-.1,1-.3,1.5ZM683.5,514.9c0-.7-.3-1.3-.8-1.7-.5-.4-1.3-.6-2.4-.6h-4.3v5h4.2c.5,0,.9,0,1.3-.2.4-.1.7-.3,1-.5.3-.2.5-.5.7-.8.2-.3.2-.7.2-1.1h0ZM684.2,520.9c0-.8-.3-1.4-1-1.8s-1.6-.6-2.9-.6h-4.3v5.1h4.6c1.1,0,2-.2,2.6-.7.6-.5,1-1.1,1-1.9h0Z"/>
    <path class="st26" d="M704.2,524.4l-1.6-3.6h-7.5l-1.6,3.6h-1l5.9-12.8h.9l5.9,12.8h-1ZM698.9,512.7l-3.4,7.3h6.7l-3.3-7.3Z"/>
  </g>
  <rect class="st9" x="91" y="507.7" width="294.5" height="21"/>
</svg>